# xmcd
#
# Track frame offsets:
#	150
#	30312
#	49321
#	67731
#	86481
#	113836
#	135044
#	154188
#	185840
#	207796
#	245904
#
# Disc length: 3927 seconds
#
# Revision: 1
# Processed by: cddbd v1.5.2PL0 Copyright (c) Steve Scherf et al.
# Submitted via: audiograbber 1.83.01
#
DISCID=8d0f550b
DTITLE=Charly's Club Concerts - 15 Years Live Tonight
DYEAR=2005
DGENRE=
TTITLE0=Chris Farlowe - I'll sing the Blues for You
TTITLE1=Hamburg Bluesband - You make my Day
TTITLE2=Blues Package - Tell me why
TTITLE3=Greg Koch - Your Face
TTITLE4=Michael Katon - The Things I used to do
TTITLE5=Ratpack - Jungle of Love
TTITLE6=East Blues Experience - Right away
TTITLE7=Physical Graffiti - Blck Dog
TTITLE8=Dave Hole - Jenny Lee
TTITLE9=Van Wilks - Without a Word
TTITLE10=Brothers in Arms - Brothers in Arms
EXTD=
EXTT0=
EXTT1=
EXTT2=
EXTT3=
EXTT4=
EXTT5=
EXTT6=
EXTT7=
EXTT8=
EXTT9=
EXTT10=
PLAYORDER=
